<svg xmlns="http://www.w3.org/2000/svg" width="23" height="42" viewBox="0 0 23 42"><g><g><path d="M21.44.639L16.252.63c-5.828 0-9.594 3.918-9.594 9.98v4.603H1.442c-.45 0-.816.37-.816.827v6.667c0 .457.366.827.816.827h5.216v16.824c0 .457.365.827.816.827h6.805c.45 0 .815-.37.815-.827V23.534h6.099c.45 0 .816-.37.816-.827l.002-6.667c0-.22-.086-.43-.239-.585a.811.811 0 0 0-.577-.242h-6.1v-3.901c0-1.875.44-2.827 2.85-2.827l3.494-.001c.45 0 .816-.37.816-.827V1.466a.822.822 0 0 0-.815-.827z"/></g></g></svg>