<svg xmlns="http://www.w3.org/2000/svg" width="42" height="42" viewBox="0 0 42 42"><g><g><path d="M41.406 13.304v15.208c0 6.998-5.674 12.672-12.672 12.672H13.526C6.528 41.184.853 35.51.853 28.512V13.304C.853 6.306 6.528.63 13.526.63h15.208c6.998 0 12.672 5.675 12.672 12.673zm-3.801 0c0-4.892-3.98-8.871-8.871-8.871H13.526c-4.892 0-8.871 3.98-8.871 8.87v15.209c0 4.891 3.98 8.87 8.871 8.87h15.208c4.891 0 8.87-3.979 8.87-8.87zm-6.337 7.604c0 5.599-4.54 10.138-10.138 10.138-5.599 0-10.139-4.54-10.139-10.138 0-5.6 4.54-10.139 10.139-10.139 5.599 0 10.138 4.54 10.138 10.139zm-3.802 0a6.344 6.344 0 0 0-6.336-6.337 6.344 6.344 0 0 0-6.337 6.337 6.345 6.345 0 0 0 6.337 6.336 6.345 6.345 0 0 0 6.336-6.336zm4.563-12.25a1.35 1.35 0 1 1 0 2.702 1.35 1.35 0 0 1 0-2.702z"/></g></g></svg>