<svg xmlns="http://www.w3.org/2000/svg" width="152" height="146" viewBox="0 0 152 146"><g><g><path fill="#fecb00" d="M81.366 120.166l-17.061 23.252a4.715 4.715 0 0 1-5.27 1.693 4.728 4.728 0 0 1-3.245-4.49v-29.208zM149.714 1.372a4.735 4.735 0 0 1 1.93 4.548L134.35 122.427a4.747 4.747 0 0 1-2.214 3.339 4.743 4.743 0 0 1-2.452.685 4.793 4.793 0 0 1-1.521-.252l-65.928-22.565 64.827-78.21-83.775 71.73L3.951 83.689a4.725 4.725 0 0 1-3.177-4.112 4.738 4.738 0 0 1 2.523-4.547l141.5-73.998a4.717 4.717 0 0 1 4.917.34z"/></g></g></svg>