<svg xmlns="http://www.w3.org/2000/svg" width="51" height="42" viewBox="0 0 51 42"><g><g><path d="M51.282 5.432a22.46 22.46 0 0 1-6.067 1.616c2.182-1.267 3.849-3.257 4.632-5.656a21.423 21.423 0 0 1-6.678 2.477A10.7 10.7 0 0 0 35.477.631c-5.83 0-10.524 4.598-10.524 10.235 0 .811.07 1.591.244 2.333C16.442 12.785 8.695 8.707 3.49 2.496 2.582 4.028 2.049 5.781 2.049 7.67c0 3.543 1.878 6.685 4.678 8.503-1.692-.03-3.352-.508-4.758-1.26v.112c0 4.973 3.65 9.103 8.437 10.055-.857.227-1.791.336-2.76.336-.675 0-1.356-.037-1.995-.174 1.365 4.052 5.237 7.031 9.84 7.128-3.583 2.723-8.131 4.364-13.056 4.364-.864 0-1.692-.038-2.52-.14 4.664 2.923 10.193 4.591 16.154 4.591 19.379 0 29.974-15.597 29.974-29.117 0-.452-.016-.89-.039-1.323 2.09-1.44 3.846-3.24 5.278-5.312z"/></g></g></svg>