<?xml version="1.0" encoding="UTF-8"?>
<svg id="SVGDoc" width="65" height="65" xmlns="http://www.w3.org/2000/svg" version="1.1" xmlns:xlink="http://www.w3.org/1999/xlink" xmlns:avocode="https://avocode.com/" viewBox="0 0 65 65"><defs></defs><desc>Generated with Avocode.</desc><g><g><title>icon</title><path d="M64.98662,1.2442l-2.41385,14.02092c-0.94872,5.43343 -3.10497,10.58452 -6.3097,15.07309l0.54169,8.15269c0.02041,0.31172 -0.09441,0.61688 -0.31528,0.8378l-13.79509,13.79418c-0.18396,0.18159 -0.42667,0.29157 -0.68455,0.30977c-0.59681,0.04248 -1.11494,-0.40737 -1.15719,-1.00434l-0.58832,-8.83536l-2.66409,2.66488c-0.32234,0.33332 -0.82607,0.41368 -1.23615,0.19713c-2.40898,4.70925 -7.2423,7.68172 -12.53071,7.70624h-11.9175c-0.59834,0 -1.08347,-0.4853 -1.08347,-1.08372v-11.92072c0.02499,-5.28971 2.99702,-10.12398 7.70521,-12.53299c-0.20676,-0.41149 -0.12779,-0.90917 0.19617,-1.23643l3.30544,-3.30652l-8.391,-0.56007c-0.26207,-0.01748 -0.50898,-0.1294 -0.69456,-0.31512c-0.42315,-0.42339 -0.42315,-1.10946 0.0001,-1.53261l13.7907,-13.79563c0.22316,-0.21704 0.52671,-0.33138 0.83752,-0.31536l7.9771,0.53434c4.27094,-2.86468 9.09472,-4.80223 14.16016,-5.68737l14.01606,-2.41653c0.34685,-0.05996 0.70114,0.05244 0.95015,0.30128c0.24881,0.24884 0.36116,0.60353 0.30117,0.95044zM23.15837,21.97965l0.18854,-0.35978c2.34261,-4.4541 5.57384,-8.37993 9.49392,-11.53496l-4.91219,-0.32507l-11.75499,11.7537zM34.71509,44.90415l-1.87426,-1.87467c-1.10035,2.17036 -3.32441,3.54007 -5.75724,3.54589h-7.5839c-0.59824,0 -1.08337,-0.4853 -1.08337,-1.08372v-7.58607c0.00572,-2.43328 1.3751,-4.65802 3.5449,-5.75874l-1.87426,-1.87467c-4.29506,1.92055 -7.06778,6.17873 -7.08771,10.88458v10.837h10.83412c4.70467,-0.01991 8.96177,-2.79331 10.88171,-7.0896zM20.58316,37.90559v6.50234h6.50043c1.88198,-0.00243 3.54662,-1.22186 4.11692,-3.01593l-7.60221,-7.60428c-1.79405,0.56978 -3.01323,2.23518 -3.01514,4.11786zM39.63595,41.15676l-15.80257,-15.80674l-2.8017,2.80229l0.07906,0.07817l3.58934,3.59032l8.46682,8.46902l3.59049,3.59251l0.07687,0.07696zM54.60978,38.14398l-0.35,-5.24504c-3.03984,3.58522 -6.73943,6.55381 -10.89802,8.74432l-1.02053,0.53434l0.5146,7.72348zM62.59127,2.38959l-12.50477,2.15555c-10.62307,1.86593 -19.78598,8.54185 -24.81976,18.08367l-0.37489,0.7152l16.75272,16.75499l0.71507,-0.37484c9.53884,-5.03529 16.21227,-14.2013 18.07556,-24.82757zM42.69982,62.83075h4.96855v2.16745h-6.50043c-0.13056,0.00049 -0.26007,-0.02258 -0.38233,-0.06822c-0.56086,-0.20878 -0.846,-0.83294 -0.63715,-1.39374l0.32501,-0.85503c0.84295,-2.2512 -0.1482,-4.77601 -2.29769,-5.85172c-2.32077,-1.16165 -5.14345,-0.22141 -6.30465,2.09996c-1.84984,3.72991 -5.65863,6.08332 -9.82103,6.06876h-2.55041c-0.28706,0 -0.56257,-0.1141 -0.76571,-0.3173c-0.42315,-0.42315 -0.42334,-1.10921 -0.00019,-1.53261l6.50043,-6.5021l1.53189,1.53236l-4.64993,4.6522c3.31831,-0.01457 6.34403,-1.9021 7.81679,-4.87652c0.51594,-1.03177 1.28326,-1.91642 2.23122,-2.57312c3.11737,-2.15919 7.39431,-1.3816 9.55296,1.73629c1.15442,1.66613 1.51396,3.7571 0.98267,5.71334zM49.83521,62.83075h2.16675v2.16745h-2.16675zM54.1688,62.83075h2.16684v2.16745h-2.16684zM7.89872,63.14781l7.58343,-7.58558l1.53217,1.53261l-7.58343,7.58558zM9.43156,52.75994l-7.58381,7.58583c-0.30985,0.31026 -0.776,0.403 -1.18093,0.23524c-0.40474,-0.16775 -0.66862,-0.56323 -0.66843,-1.00143v-4.78329c-0.01125,-4.16617 1.64394,-8.16362 4.5969,-11.10137c1.2229,-1.21652 1.9084,-2.87197 1.90353,-4.59709v-0.10852c-0.0042,-3.58935 -2.91204,-6.49797 -6.50043,-6.5021v-2.16745c4.78458,0.00534 8.66184,3.88383 8.66728,8.66955v0.10852c0.00677,2.30073 -0.90742,4.50823 -2.53849,6.13042c-2.54507,2.53209 -3.97158,5.97748 -3.96204,9.56804v2.16745l5.73454,-5.73616zM0.31014,63.14781l2.16646,-2.16721l1.53217,1.53261l-2.16646,2.16696zM54.1688,17.31531c0,3.59129 -2.91033,6.50234 -6.50043,6.50234c-0.20123,-0.00024 -0.40236,-0.01092 -0.60234,-0.03253l-1.88189,1.88244l-1.08347,1.08372c-1.61972,1.62 -4.24585,1.62 -5.86557,0c-1.61972,-1.62025 -1.61972,-4.24726 0,-5.86726l1.08347,-1.08372l1.88179,-1.88244c-0.02146,-0.20004 -0.03233,-0.40106 -0.03242,-0.60255c0,-3.59105 2.91023,-6.5021 6.50043,-6.5021c3.59011,0 6.50043,2.91105 6.50043,6.5021zM42.88617,24.90138l-2.8017,-2.80253l-0.31738,0.31754c-0.73414,0.76667 -0.73414,1.97566 0,2.74208c0.75703,0.7907 2.0113,0.81765 2.8017,0.06045zM52.00196,17.31531c0,-2.39395 -1.94025,-4.33465 -4.33359,-4.33465c-2.39344,0 -4.33369,1.9407 -4.33369,4.33465c0.00305,0.26389 0.03061,0.52705 0.0824,0.78585c0.06523,0.35105 -0.04663,0.7118 -0.29907,0.96452l-1.50156,1.5008l0.63486,0.63509l2.30331,-2.3051l1.00222,-3.0084l2.05841,0.68607l-0.39864,1.192l1.19171,-0.39766l0.68579,2.05893l-3.00751,1.00264l-2.30331,2.30388l0.63486,0.63509l1.50051,-1.50105c0.25225,-0.25224 0.61235,-0.36391 0.96312,-0.29909c0.25911,0.05171 0.52233,0.0789 0.78659,0.08133c2.39353,0 4.33359,-1.9407 4.33359,-4.3349zM53.40262,10.04655l2.16656,-2.16721l1.53208,1.53261l-2.16646,2.16696zM55.25218,16.23159h3.25031v2.16745h-3.25031zM46.585,6.47832h2.16675v3.25117h-2.16675z" fill="#505050" fill-opacity="1"></path></g></g></svg>